<?xml version="1.0" standalone="no"?>
<!DOCTYPE svg PUBLIC "-//W3C//DTD SVG 20010904//EN"
 "http://www.w3.org/TR/2001/REC-SVG-20010904/DTD/svg10.dtd">
<svg version="1.0" xmlns="http://www.w3.org/2000/svg"
 width="200.000000pt" height="200.000000pt" viewBox="0 0 200.000000 200.000000"
 preserveAspectRatio="xMidYMid meet">
<metadata>
Created by potrace 1.11, written by Peter Selinger 2001-2013
</metadata>
<g transform="translate(0.000000,200.000000) scale(0.100000,-0.100000)"
fill="#000000" stroke="none">
<path d="M1037 1604 c-1 -1 -42 -5 -92 -9 -57 -4 -103 -13 -126 -25 -20 -10
-68 -21 -105 -25 -130 -11 -167 -49 -178 -180 -10 -105 -15 -124 -58 -203 -47
-85 -51 -121 -27 -216 11 -39 21 -84 24 -101 11 -58 47 -111 116 -170 39 -32
77 -71 84 -85 7 -14 13 -56 14 -95 1 -77 13 -95 62 -95 34 0 59 24 59 54 0 24
29 68 65 98 29 25 13 44 -91 106 -133 81 -173 117 -205 186 -38 82 -49 160
-32 218 25 88 166 213 212 188 12 -6 23 -21 27 -35 8 -34 26 -37 86 -16 93 33
88 28 81 77 -6 45 4 57 25 31 18 -21 25 -112 12 -151 -13 -42 -44 -66 -120
-93 -58 -22 -91 -21 -126 2 -25 16 -44 4 -37 -24 6 -23 27 -35 98 -56 33 -9
88 -30 124 -46 35 -16 69 -29 76 -29 8 0 13 20 14 62 1 34 5 65 9 69 18 16
146 37 235 39 87 1 97 -1 98 -17 1 -25 -2 -76 -6 -99 -2 -10 -4 -29 -4 -41 -1
-13 -24 -44 -57 -75 -30 -29 -60 -61 -65 -71 -12 -22 -18 -91 -22 -255 -2
-135 0 -142 59 -142 50 0 57 18 62 158 4 138 10 157 72 232 72 87 79 113 86
305 3 83 7 173 9 200 5 80 -4 101 -72 174 -59 65 -89 84 -151 96 -26 5 -62 23
-86 44 -12 11 -38 16 -82 17 -35 0 -65 -1 -67 -2z m65 -123 c9 -1 28 -12 42
-26 24 -24 25 -31 22 -108 -2 -45 -4 -105 -5 -133 -1 -58 -20 -88 -63 -98 -43
-10 -55 12 -56 98 -1 73 -19 233 -28 248 -7 11 25 25 49 22 12 -1 30 -3 39 -3z
m-144 -24 c19 -15 15 -75 -5 -85 -33 -17 -104 -23 -119 -11 -15 13 -19 66 -5
87 18 29 97 34 129 9z m370 -41 c17 -20 33 -52 37 -74 8 -49 10 -160 3 -167
-10 -11 -106 -22 -120 -14 -17 10 -16 235 1 268 17 30 45 26 79 -13z m-547 2
c22 -34 1 -113 -33 -124 -87 -27 -120 -8 -116 69 3 45 6 52 28 57 50 12 113
11 121 -2z"/>
</g>
</svg>
